<svg xmlns="http://www.w3.org/2000/svg" xmlns:xlink="http://www.w3.org/1999/xlink" width="500" zoomAndPan="magnify" viewBox="0 0 375 374.999991" height="500" preserveAspectRatio="xMidYMid meet" version="1.0"><defs><g/></defs><g fill="#000000" fill-opacity="1"><g transform="translate(146.526266, 210.272331)"><g><path d="M 6.890625 0 L 2.78125 0 L 2.78125 -21.421875 L 7.625 -21.421875 L 16.234375 -7.625 L 16.609375 -7.671875 L 16.609375 -21.421875 L 20.6875 -21.421875 L 20.6875 0 L 16.34375 0 L 7.25 -14.734375 L 6.890625 -14.671875 Z M 6.890625 0 "/></g></g><g transform="translate(170.00771, 210.272331)"><g><path d="M 6.296875 0.3125 C 5.265625 0.3125 4.367188 0.125 3.609375 -0.25 C 2.847656 -0.632812 2.257812 -1.195312 1.84375 -1.9375 C 1.4375 -2.675781 1.234375 -3.5625 1.234375 -4.59375 C 1.234375 -5.550781 1.4375 -6.351562 1.84375 -7 C 2.257812 -7.65625 2.894531 -8.191406 3.75 -8.609375 C 4.613281 -9.023438 5.738281 -9.34375 7.125 -9.5625 C 8.082031 -9.71875 8.8125 -9.890625 9.3125 -10.078125 C 9.820312 -10.265625 10.164062 -10.472656 10.34375 -10.703125 C 10.519531 -10.941406 10.609375 -11.242188 10.609375 -11.609375 C 10.609375 -12.117188 10.425781 -12.507812 10.0625 -12.78125 C 9.695312 -13.0625 9.097656 -13.203125 8.265625 -13.203125 C 7.367188 -13.203125 6.515625 -13 5.703125 -12.59375 C 4.890625 -12.195312 4.1875 -11.671875 3.59375 -11.015625 L 3.296875 -11.015625 L 1.59375 -13.578125 C 2.414062 -14.484375 3.414062 -15.191406 4.59375 -15.703125 C 5.78125 -16.210938 7.070312 -16.46875 8.46875 -16.46875 C 10.601562 -16.46875 12.148438 -16.007812 13.109375 -15.09375 C 14.066406 -14.1875 14.546875 -12.898438 14.546875 -11.234375 L 14.546875 -4.21875 C 14.546875 -3.5 14.863281 -3.140625 15.5 -3.140625 C 15.738281 -3.140625 15.976562 -3.179688 16.21875 -3.265625 L 16.421875 -3.203125 L 16.71875 -0.375 C 16.488281 -0.226562 16.171875 -0.109375 15.765625 -0.015625 C 15.367188 0.078125 14.929688 0.125 14.453125 0.125 C 13.492188 0.125 12.738281 -0.0625 12.1875 -0.4375 C 11.644531 -0.8125 11.257812 -1.394531 11.03125 -2.1875 L 10.71875 -2.21875 C 9.925781 -0.53125 8.453125 0.3125 6.296875 0.3125 Z M 7.59375 -2.71875 C 8.53125 -2.71875 9.273438 -3.03125 9.828125 -3.65625 C 10.390625 -4.289062 10.671875 -5.171875 10.671875 -6.296875 L 10.671875 -7.9375 L 10.40625 -8 C 10.15625 -7.800781 9.832031 -7.632812 9.4375 -7.5 C 9.039062 -7.375 8.472656 -7.25 7.734375 -7.125 C 6.859375 -6.976562 6.226562 -6.722656 5.84375 -6.359375 C 5.457031 -6.003906 5.265625 -5.5 5.265625 -4.84375 C 5.265625 -4.15625 5.46875 -3.628906 5.875 -3.265625 C 6.28125 -2.898438 6.851562 -2.71875 7.59375 -2.71875 Z M 7.59375 -2.71875 "/></g></g><g transform="translate(187.043841, 210.272331)"><g><path d="M 7.984375 0.3125 C 6.703125 0.3125 5.570312 0.00390625 4.59375 -0.609375 C 3.613281 -1.234375 2.84375 -2.171875 2.28125 -3.421875 C 1.726562 -4.679688 1.453125 -6.234375 1.453125 -8.078125 C 1.453125 -9.921875 1.738281 -11.46875 2.3125 -12.71875 C 2.882812 -13.976562 3.675781 -14.914062 4.6875 -15.53125 C 5.695312 -16.15625 6.863281 -16.46875 8.1875 -16.46875 C 9.195312 -16.46875 10.066406 -16.289062 10.796875 -15.9375 C 11.535156 -15.59375 12.160156 -15.054688 12.671875 -14.328125 L 12.984375 -14.40625 L 12.984375 -22.640625 L 17.03125 -22.640625 L 17.03125 0 L 12.984375 0 L 12.984375 -2.09375 L 12.671875 -2.15625 C 12.222656 -1.394531 11.609375 -0.789062 10.828125 -0.34375 C 10.046875 0.09375 9.097656 0.3125 7.984375 0.3125 Z M 9.296875 -3.140625 C 10.441406 -3.140625 11.347656 -3.546875 12.015625 -4.359375 C 12.679688 -5.171875 13.015625 -6.410156 13.015625 -8.078125 C 13.015625 -9.734375 12.679688 -10.96875 12.015625 -11.78125 C 11.347656 -12.601562 10.441406 -13.015625 9.296875 -13.015625 C 8.109375 -13.015625 7.195312 -12.617188 6.5625 -11.828125 C 5.9375 -11.035156 5.625 -9.785156 5.625 -8.078125 C 5.625 -6.367188 5.9375 -5.117188 6.5625 -4.328125 C 7.195312 -3.535156 8.109375 -3.140625 9.296875 -3.140625 Z M 9.296875 -3.140625 "/></g></g><g transform="translate(206.409074, 210.272331)"><g><path d="M 4.34375 -18.09375 C 3.613281 -18.09375 3.019531 -18.3125 2.5625 -18.75 C 2.101562 -19.195312 1.875 -19.773438 1.875 -20.484375 C 1.875 -21.171875 2.101562 -21.738281 2.5625 -22.1875 C 3.019531 -22.632812 3.613281 -22.859375 4.34375 -22.859375 C 4.832031 -22.859375 5.265625 -22.753906 5.640625 -22.546875 C 6.023438 -22.335938 6.320312 -22.054688 6.53125 -21.703125 C 6.75 -21.347656 6.859375 -20.941406 6.859375 -20.484375 C 6.859375 -20.023438 6.75 -19.613281 6.53125 -19.25 C 6.320312 -18.882812 6.023438 -18.597656 5.640625 -18.390625 C 5.265625 -18.191406 4.832031 -18.09375 4.34375 -18.09375 Z M 2.328125 0 L 2.328125 -16.15625 L 6.390625 -16.15625 L 6.390625 0 Z M 2.328125 0 "/></g></g></g></svg>